%TF.GenerationSoftware,KiCad,Pcbnew,(5.1.10)-1*%
%TF.CreationDate,2024-08-31T09:34:39+05:30*%
%TF.ProjectId,single layer PCB,73696e67-6c65-4206-9c61-796572205043,rev?*%
%TF.SameCoordinates,Original*%
%TF.FileFunction,Copper,L2,Bot*%
%TF.FilePolarity,Positive*%
%FSLAX46Y46*%
G04 Gerber Fmt 4.6, Leading zero omitted, Abs format (unit mm)*
G04 Created by KiCad (PCBNEW (5.1.10)-1) date 2024-08-31 09:34:39*
%MOMM*%
%LPD*%
G01*
G04 APERTURE LIST*
%TA.AperFunction,ComponentPad*%
%ADD10O,1.905000X2.000000*%
%TD*%
%TA.AperFunction,ComponentPad*%
%ADD11R,1.905000X2.000000*%
%TD*%
%TA.AperFunction,ComponentPad*%
%ADD12O,2.400000X2.400000*%
%TD*%
%TA.AperFunction,ComponentPad*%
%ADD13C,2.400000*%
%TD*%
%TA.AperFunction,ComponentPad*%
%ADD14O,1.700000X1.700000*%
%TD*%
%TA.AperFunction,ComponentPad*%
%ADD15R,1.700000X1.700000*%
%TD*%
%TA.AperFunction,ComponentPad*%
%ADD16C,1.800000*%
%TD*%
%TA.AperFunction,ComponentPad*%
%ADD17R,1.800000X1.800000*%
%TD*%
%TA.AperFunction,ComponentPad*%
%ADD18C,1.600000*%
%TD*%
%TA.AperFunction,ComponentPad*%
%ADD19R,1.600000X1.600000*%
%TD*%
%TA.AperFunction,Conductor*%
%ADD20C,0.254000*%
%TD*%
G04 APERTURE END LIST*
D10*
%TO.P,U1,3*%
%TO.N,+Vo*%
X175514000Y-92710000D03*
%TO.P,U1,2*%
%TO.N,GND*%
X172974000Y-92710000D03*
D11*
%TO.P,U1,1*%
%TO.N,Net-(C1-Pad1)*%
X170434000Y-92710000D03*
%TD*%
D12*
%TO.P,R1,2*%
%TO.N,Net-(D3-Pad2)*%
X145542000Y-112776000D03*
D13*
%TO.P,R1,1*%
%TO.N,+Vo*%
X145542000Y-92456000D03*
%TD*%
D14*
%TO.P,J2,2*%
%TO.N,+Vo*%
X180594000Y-100584000D03*
D15*
%TO.P,J2,1*%
%TO.N,GND*%
X180594000Y-103124000D03*
%TD*%
D14*
%TO.P,J1,3*%
%TO.N,-Vac*%
X107442000Y-105664000D03*
%TO.P,J1,2*%
%TO.N,GND*%
X107442000Y-103124000D03*
D15*
%TO.P,J1,1*%
%TO.N,+Vac*%
X107442000Y-100584000D03*
%TD*%
D16*
%TO.P,D3,2*%
%TO.N,Net-(D3-Pad2)*%
X157226000Y-111506000D03*
D17*
%TO.P,D3,1*%
%TO.N,GND*%
X159766000Y-111506000D03*
%TD*%
D12*
%TO.P,D2,2*%
%TO.N,-Vac*%
X111506000Y-112776000D03*
D13*
%TO.P,D2,1*%
%TO.N,Net-(C1-Pad1)*%
X131826000Y-112776000D03*
%TD*%
D12*
%TO.P,D1,2*%
%TO.N,+Vac*%
X110744000Y-92202000D03*
D13*
%TO.P,D1,1*%
%TO.N,Net-(C1-Pad1)*%
X131064000Y-92202000D03*
%TD*%
D18*
%TO.P,C2,2*%
%TO.N,GND*%
X168402000Y-104608000D03*
%TO.P,C2,1*%
%TO.N,+Vo*%
X168402000Y-102108000D03*
%TD*%
%TO.P,C1,2*%
%TO.N,GND*%
X118190000Y-103124000D03*
D19*
%TO.P,C1,1*%
%TO.N,Net-(C1-Pad1)*%
X123190000Y-103124000D03*
%TD*%
D20*
%TO.N,GND*%
X107442000Y-103124000D02*
X118190000Y-103124000D01*
X129423001Y-114357001D02*
X156914999Y-114357001D01*
X156914999Y-114357001D02*
X159766000Y-111506000D01*
X118190000Y-103124000D02*
X129423001Y-114357001D01*
X179110000Y-104608000D02*
X180594000Y-103124000D01*
X168402000Y-104608000D02*
X179110000Y-104608000D01*
X172212000Y-111506000D02*
X180594000Y-103124000D01*
X159766000Y-111506000D02*
X172212000Y-111506000D01*
X174355010Y-91328990D02*
X172974000Y-92710000D01*
X176066357Y-91328990D02*
X174355010Y-91328990D01*
X181825001Y-97087634D02*
X176066357Y-91328990D01*
X181825001Y-101892999D02*
X181825001Y-97087634D01*
X180594000Y-103124000D02*
X181825001Y-101892999D01*
%TO.N,Net-(C1-Pad1)*%
X123190000Y-100076000D02*
X131064000Y-92202000D01*
X123190000Y-103124000D02*
X123190000Y-100076000D01*
X131064000Y-112014000D02*
X131826000Y-112776000D01*
X131064000Y-92202000D02*
X131064000Y-112014000D01*
X132391001Y-90874999D02*
X131064000Y-92202000D01*
X168598999Y-90874999D02*
X132391001Y-90874999D01*
X170434000Y-92710000D02*
X168598999Y-90874999D01*
%TO.N,+Vo*%
X158750000Y-92456000D02*
X168402000Y-102108000D01*
X145542000Y-92456000D02*
X158750000Y-92456000D01*
X179070000Y-102108000D02*
X180594000Y-100584000D01*
X168402000Y-102108000D02*
X179070000Y-102108000D01*
X180594000Y-97790000D02*
X175514000Y-92710000D01*
X180594000Y-100584000D02*
X180594000Y-97790000D01*
%TO.N,+Vac*%
X107442000Y-95504000D02*
X110744000Y-92202000D01*
X107442000Y-100584000D02*
X107442000Y-95504000D01*
%TO.N,-Vac*%
X107442000Y-108712000D02*
X111506000Y-112776000D01*
X107442000Y-105664000D02*
X107442000Y-108712000D01*
%TO.N,Net-(D3-Pad2)*%
X155956000Y-112776000D02*
X157226000Y-111506000D01*
X145542000Y-112776000D02*
X155956000Y-112776000D01*
%TD*%
M02*
