%TF.GenerationSoftware,KiCad,Pcbnew,(5.1.10)-1*%
%TF.CreationDate,2024-08-31T09:34:39+05:30*%
%TF.ProjectId,single layer PCB,73696e67-6c65-4206-9c61-796572205043,rev?*%
%TF.SameCoordinates,Original*%
%TF.FileFunction,Legend,Bot*%
%TF.FilePolarity,Positive*%
%FSLAX46Y46*%
G04 Gerber Fmt 4.6, Leading zero omitted, Abs format (unit mm)*
G04 Created by KiCad (PCBNEW (5.1.10)-1) date 2024-08-31 09:34:39*
%MOMM*%
%LPD*%
G01*
G04 APERTURE LIST*
%ADD10C,0.150000*%
G04 APERTURE END LIST*
D10*
X170283904Y-117038380D02*
X170283904Y-116038380D01*
X170617238Y-116752666D01*
X170950571Y-116038380D01*
X170950571Y-117038380D01*
X171855333Y-116371714D02*
X171855333Y-117038380D01*
X171426761Y-116371714D02*
X171426761Y-116895523D01*
X171474380Y-116990761D01*
X171569619Y-117038380D01*
X171712476Y-117038380D01*
X171807714Y-116990761D01*
X171855333Y-116943142D01*
X172188666Y-116371714D02*
X172569619Y-116371714D01*
X172331523Y-116038380D02*
X172331523Y-116895523D01*
X172379142Y-116990761D01*
X172474380Y-117038380D01*
X172569619Y-117038380D01*
X172902952Y-117038380D02*
X172902952Y-116038380D01*
X173331523Y-117038380D02*
X173331523Y-116514571D01*
X173283904Y-116419333D01*
X173188666Y-116371714D01*
X173045809Y-116371714D01*
X172950571Y-116419333D01*
X172902952Y-116466952D01*
X174236285Y-116371714D02*
X174236285Y-117038380D01*
X173807714Y-116371714D02*
X173807714Y-116895523D01*
X173855333Y-116990761D01*
X173950571Y-117038380D01*
X174093428Y-117038380D01*
X174188666Y-116990761D01*
X174236285Y-116943142D01*
X174855333Y-117038380D02*
X174760095Y-116990761D01*
X174712476Y-116895523D01*
X174712476Y-116038380D01*
X175664857Y-117038380D02*
X175664857Y-116514571D01*
X175617238Y-116419333D01*
X175522000Y-116371714D01*
X175331523Y-116371714D01*
X175236285Y-116419333D01*
X175664857Y-116990761D02*
X175569619Y-117038380D01*
X175331523Y-117038380D01*
X175236285Y-116990761D01*
X175188666Y-116895523D01*
X175188666Y-116800285D01*
X175236285Y-116705047D01*
X175331523Y-116657428D01*
X175569619Y-116657428D01*
X175664857Y-116609809D01*
X176141047Y-117038380D02*
X176141047Y-116038380D01*
X176236285Y-116657428D02*
X176522000Y-117038380D01*
X176522000Y-116371714D02*
X176141047Y-116752666D01*
X176902952Y-116990761D02*
X176998190Y-117038380D01*
X177188666Y-117038380D01*
X177283904Y-116990761D01*
X177331523Y-116895523D01*
X177331523Y-116847904D01*
X177283904Y-116752666D01*
X177188666Y-116705047D01*
X177045809Y-116705047D01*
X176950571Y-116657428D01*
X176902952Y-116562190D01*
X176902952Y-116514571D01*
X176950571Y-116419333D01*
X177045809Y-116371714D01*
X177188666Y-116371714D01*
X177283904Y-116419333D01*
X177760095Y-117038380D02*
X177760095Y-116038380D01*
X178188666Y-117038380D02*
X178188666Y-116514571D01*
X178141047Y-116419333D01*
X178045809Y-116371714D01*
X177902952Y-116371714D01*
X177807714Y-116419333D01*
X177760095Y-116466952D01*
X178664857Y-117038380D02*
X178664857Y-116371714D01*
X178664857Y-116466952D02*
X178712476Y-116419333D01*
X178807714Y-116371714D01*
X178950571Y-116371714D01*
X179045809Y-116419333D01*
X179093428Y-116514571D01*
X179093428Y-117038380D01*
X179093428Y-116514571D02*
X179141047Y-116419333D01*
X179236285Y-116371714D01*
X179379142Y-116371714D01*
X179474380Y-116419333D01*
X179522000Y-116514571D01*
X179522000Y-117038380D01*
X179998190Y-117038380D02*
X179998190Y-116371714D01*
X179998190Y-116038380D02*
X179950571Y-116086000D01*
X179998190Y-116133619D01*
X180045809Y-116086000D01*
X179998190Y-116038380D01*
X179998190Y-116133619D01*
X181807714Y-117038380D02*
X181474380Y-116562190D01*
X181236285Y-117038380D02*
X181236285Y-116038380D01*
X181617238Y-116038380D01*
X181712476Y-116086000D01*
X181760095Y-116133619D01*
X181807714Y-116228857D01*
X181807714Y-116371714D01*
X181760095Y-116466952D01*
X181712476Y-116514571D01*
X181617238Y-116562190D01*
X181236285Y-116562190D01*
M02*
