%TF.GenerationSoftware,KiCad,Pcbnew,(5.1.10)-1*%
%TF.CreationDate,2024-08-31T09:34:39+05:30*%
%TF.ProjectId,single layer PCB,73696e67-6c65-4206-9c61-796572205043,rev?*%
%TF.SameCoordinates,Original*%
%TF.FileFunction,Copper,L1,Top*%
%TF.FilePolarity,Positive*%
%FSLAX46Y46*%
G04 Gerber Fmt 4.6, Leading zero omitted, Abs format (unit mm)*
G04 Created by KiCad (PCBNEW (5.1.10)-1) date 2024-08-31 09:34:39*
%MOMM*%
%LPD*%
G01*
G04 APERTURE LIST*
%TA.AperFunction,ComponentPad*%
%ADD10O,1.905000X2.000000*%
%TD*%
%TA.AperFunction,ComponentPad*%
%ADD11R,1.905000X2.000000*%
%TD*%
%TA.AperFunction,ComponentPad*%
%ADD12O,2.400000X2.400000*%
%TD*%
%TA.AperFunction,ComponentPad*%
%ADD13C,2.400000*%
%TD*%
%TA.AperFunction,ComponentPad*%
%ADD14O,1.700000X1.700000*%
%TD*%
%TA.AperFunction,ComponentPad*%
%ADD15R,1.700000X1.700000*%
%TD*%
%TA.AperFunction,ComponentPad*%
%ADD16C,1.800000*%
%TD*%
%TA.AperFunction,ComponentPad*%
%ADD17R,1.800000X1.800000*%
%TD*%
%TA.AperFunction,ComponentPad*%
%ADD18C,1.600000*%
%TD*%
%TA.AperFunction,ComponentPad*%
%ADD19R,1.600000X1.600000*%
%TD*%
%TA.AperFunction,NonConductor*%
%ADD20C,0.254000*%
%TD*%
%TA.AperFunction,NonConductor*%
%ADD21C,0.100000*%
%TD*%
G04 APERTURE END LIST*
D10*
%TO.P,U1,3*%
%TO.N,+Vo*%
X175514000Y-92710000D03*
%TO.P,U1,2*%
%TO.N,GND*%
X172974000Y-92710000D03*
D11*
%TO.P,U1,1*%
%TO.N,Net-(C1-Pad1)*%
X170434000Y-92710000D03*
%TD*%
D12*
%TO.P,R1,2*%
%TO.N,Net-(D3-Pad2)*%
X145542000Y-112776000D03*
D13*
%TO.P,R1,1*%
%TO.N,+Vo*%
X145542000Y-92456000D03*
%TD*%
D14*
%TO.P,J2,2*%
%TO.N,+Vo*%
X180594000Y-100584000D03*
D15*
%TO.P,J2,1*%
%TO.N,GND*%
X180594000Y-103124000D03*
%TD*%
D14*
%TO.P,J1,3*%
%TO.N,-Vac*%
X107442000Y-105664000D03*
%TO.P,J1,2*%
%TO.N,GND*%
X107442000Y-103124000D03*
D15*
%TO.P,J1,1*%
%TO.N,+Vac*%
X107442000Y-100584000D03*
%TD*%
D16*
%TO.P,D3,2*%
%TO.N,Net-(D3-Pad2)*%
X157226000Y-111506000D03*
D17*
%TO.P,D3,1*%
%TO.N,GND*%
X159766000Y-111506000D03*
%TD*%
D12*
%TO.P,D2,2*%
%TO.N,-Vac*%
X111506000Y-112776000D03*
D13*
%TO.P,D2,1*%
%TO.N,Net-(C1-Pad1)*%
X131826000Y-112776000D03*
%TD*%
D12*
%TO.P,D1,2*%
%TO.N,+Vac*%
X110744000Y-92202000D03*
D13*
%TO.P,D1,1*%
%TO.N,Net-(C1-Pad1)*%
X131064000Y-92202000D03*
%TD*%
D18*
%TO.P,C2,2*%
%TO.N,GND*%
X168402000Y-104608000D03*
%TO.P,C2,1*%
%TO.N,+Vo*%
X168402000Y-102108000D03*
%TD*%
%TO.P,C1,2*%
%TO.N,GND*%
X118190000Y-103124000D03*
D19*
%TO.P,C1,1*%
%TO.N,Net-(C1-Pad1)*%
X123190000Y-103124000D03*
%TD*%
D20*
X183769000Y-84582000D02*
X183771440Y-84606776D01*
X183778667Y-84630601D01*
X183790403Y-84652557D01*
X183806197Y-84671803D01*
X183825443Y-84687597D01*
X183847399Y-84699333D01*
X183871224Y-84706560D01*
X183896000Y-84709000D01*
X189290000Y-84709000D01*
X189290001Y-112395000D01*
X183896000Y-112395000D01*
X183871224Y-112397440D01*
X183847399Y-112404667D01*
X183825443Y-112416403D01*
X183806197Y-112432197D01*
X183790403Y-112451443D01*
X183778667Y-112473399D01*
X183771440Y-112497224D01*
X183769000Y-112522000D01*
X183769000Y-119290000D01*
X105283000Y-119290000D01*
X105283000Y-114300000D01*
X105279752Y-114271462D01*
X105271807Y-114247868D01*
X105259411Y-114226277D01*
X105243041Y-114207519D01*
X105223327Y-114192315D01*
X105201025Y-114181249D01*
X105176992Y-114174747D01*
X105152153Y-114173058D01*
X100710000Y-114307669D01*
X100710000Y-112595268D01*
X109671000Y-112595268D01*
X109671000Y-112956732D01*
X109741518Y-113311250D01*
X109879844Y-113645199D01*
X110080662Y-113945744D01*
X110336256Y-114201338D01*
X110636801Y-114402156D01*
X110970750Y-114540482D01*
X111325268Y-114611000D01*
X111686732Y-114611000D01*
X112041250Y-114540482D01*
X112375199Y-114402156D01*
X112675744Y-114201338D01*
X112931338Y-113945744D01*
X113132156Y-113645199D01*
X113270482Y-113311250D01*
X113341000Y-112956732D01*
X113341000Y-112595268D01*
X129991000Y-112595268D01*
X129991000Y-112956732D01*
X130061518Y-113311250D01*
X130199844Y-113645199D01*
X130400662Y-113945744D01*
X130656256Y-114201338D01*
X130956801Y-114402156D01*
X131290750Y-114540482D01*
X131645268Y-114611000D01*
X132006732Y-114611000D01*
X132361250Y-114540482D01*
X132695199Y-114402156D01*
X132995744Y-114201338D01*
X133251338Y-113945744D01*
X133452156Y-113645199D01*
X133590482Y-113311250D01*
X133661000Y-112956732D01*
X133661000Y-112595268D01*
X143707000Y-112595268D01*
X143707000Y-112956732D01*
X143777518Y-113311250D01*
X143915844Y-113645199D01*
X144116662Y-113945744D01*
X144372256Y-114201338D01*
X144672801Y-114402156D01*
X145006750Y-114540482D01*
X145361268Y-114611000D01*
X145722732Y-114611000D01*
X146077250Y-114540482D01*
X146411199Y-114402156D01*
X146711744Y-114201338D01*
X146967338Y-113945744D01*
X147168156Y-113645199D01*
X147306482Y-113311250D01*
X147377000Y-112956732D01*
X147377000Y-112595268D01*
X147306482Y-112240750D01*
X147168156Y-111906801D01*
X146967338Y-111606256D01*
X146715898Y-111354816D01*
X155691000Y-111354816D01*
X155691000Y-111657184D01*
X155749989Y-111953743D01*
X155865701Y-112233095D01*
X156033688Y-112484505D01*
X156247495Y-112698312D01*
X156498905Y-112866299D01*
X156778257Y-112982011D01*
X157074816Y-113041000D01*
X157377184Y-113041000D01*
X157673743Y-112982011D01*
X157953095Y-112866299D01*
X158204505Y-112698312D01*
X158270944Y-112631873D01*
X158276498Y-112650180D01*
X158335463Y-112760494D01*
X158414815Y-112857185D01*
X158511506Y-112936537D01*
X158621820Y-112995502D01*
X158741518Y-113031812D01*
X158866000Y-113044072D01*
X160666000Y-113044072D01*
X160790482Y-113031812D01*
X160910180Y-112995502D01*
X161020494Y-112936537D01*
X161117185Y-112857185D01*
X161196537Y-112760494D01*
X161255502Y-112650180D01*
X161291812Y-112530482D01*
X161304072Y-112406000D01*
X161304072Y-110606000D01*
X161291812Y-110481518D01*
X161255502Y-110361820D01*
X161196537Y-110251506D01*
X161117185Y-110154815D01*
X161020494Y-110075463D01*
X160910180Y-110016498D01*
X160790482Y-109980188D01*
X160666000Y-109967928D01*
X158866000Y-109967928D01*
X158741518Y-109980188D01*
X158621820Y-110016498D01*
X158511506Y-110075463D01*
X158414815Y-110154815D01*
X158335463Y-110251506D01*
X158276498Y-110361820D01*
X158270944Y-110380127D01*
X158204505Y-110313688D01*
X157953095Y-110145701D01*
X157673743Y-110029989D01*
X157377184Y-109971000D01*
X157074816Y-109971000D01*
X156778257Y-110029989D01*
X156498905Y-110145701D01*
X156247495Y-110313688D01*
X156033688Y-110527495D01*
X155865701Y-110778905D01*
X155749989Y-111058257D01*
X155691000Y-111354816D01*
X146715898Y-111354816D01*
X146711744Y-111350662D01*
X146411199Y-111149844D01*
X146077250Y-111011518D01*
X145722732Y-110941000D01*
X145361268Y-110941000D01*
X145006750Y-111011518D01*
X144672801Y-111149844D01*
X144372256Y-111350662D01*
X144116662Y-111606256D01*
X143915844Y-111906801D01*
X143777518Y-112240750D01*
X143707000Y-112595268D01*
X133661000Y-112595268D01*
X133590482Y-112240750D01*
X133452156Y-111906801D01*
X133251338Y-111606256D01*
X132995744Y-111350662D01*
X132695199Y-111149844D01*
X132361250Y-111011518D01*
X132006732Y-110941000D01*
X131645268Y-110941000D01*
X131290750Y-111011518D01*
X130956801Y-111149844D01*
X130656256Y-111350662D01*
X130400662Y-111606256D01*
X130199844Y-111906801D01*
X130061518Y-112240750D01*
X129991000Y-112595268D01*
X113341000Y-112595268D01*
X113270482Y-112240750D01*
X113132156Y-111906801D01*
X112931338Y-111606256D01*
X112675744Y-111350662D01*
X112375199Y-111149844D01*
X112041250Y-111011518D01*
X111686732Y-110941000D01*
X111325268Y-110941000D01*
X110970750Y-111011518D01*
X110636801Y-111149844D01*
X110336256Y-111350662D01*
X110080662Y-111606256D01*
X109879844Y-111906801D01*
X109741518Y-112240750D01*
X109671000Y-112595268D01*
X100710000Y-112595268D01*
X100710000Y-99734000D01*
X105953928Y-99734000D01*
X105953928Y-101434000D01*
X105966188Y-101558482D01*
X106002498Y-101678180D01*
X106061463Y-101788494D01*
X106140815Y-101885185D01*
X106237506Y-101964537D01*
X106347820Y-102023502D01*
X106420380Y-102045513D01*
X106288525Y-102177368D01*
X106126010Y-102420589D01*
X106014068Y-102690842D01*
X105957000Y-102977740D01*
X105957000Y-103270260D01*
X106014068Y-103557158D01*
X106126010Y-103827411D01*
X106288525Y-104070632D01*
X106495368Y-104277475D01*
X106669760Y-104394000D01*
X106495368Y-104510525D01*
X106288525Y-104717368D01*
X106126010Y-104960589D01*
X106014068Y-105230842D01*
X105957000Y-105517740D01*
X105957000Y-105810260D01*
X106014068Y-106097158D01*
X106126010Y-106367411D01*
X106288525Y-106610632D01*
X106495368Y-106817475D01*
X106738589Y-106979990D01*
X107008842Y-107091932D01*
X107295740Y-107149000D01*
X107588260Y-107149000D01*
X107875158Y-107091932D01*
X108145411Y-106979990D01*
X108388632Y-106817475D01*
X108595475Y-106610632D01*
X108757990Y-106367411D01*
X108869932Y-106097158D01*
X108927000Y-105810260D01*
X108927000Y-105517740D01*
X108869932Y-105230842D01*
X108757990Y-104960589D01*
X108595475Y-104717368D01*
X108388632Y-104510525D01*
X108214240Y-104394000D01*
X108388632Y-104277475D01*
X108595475Y-104070632D01*
X108757990Y-103827411D01*
X108869932Y-103557158D01*
X108927000Y-103270260D01*
X108927000Y-102982665D01*
X116755000Y-102982665D01*
X116755000Y-103265335D01*
X116810147Y-103542574D01*
X116918320Y-103803727D01*
X117075363Y-104038759D01*
X117275241Y-104238637D01*
X117510273Y-104395680D01*
X117771426Y-104503853D01*
X118048665Y-104559000D01*
X118331335Y-104559000D01*
X118608574Y-104503853D01*
X118869727Y-104395680D01*
X119104759Y-104238637D01*
X119304637Y-104038759D01*
X119461680Y-103803727D01*
X119569853Y-103542574D01*
X119625000Y-103265335D01*
X119625000Y-102982665D01*
X119569853Y-102705426D01*
X119461680Y-102444273D01*
X119381317Y-102324000D01*
X121751928Y-102324000D01*
X121751928Y-103924000D01*
X121764188Y-104048482D01*
X121800498Y-104168180D01*
X121859463Y-104278494D01*
X121938815Y-104375185D01*
X122035506Y-104454537D01*
X122145820Y-104513502D01*
X122265518Y-104549812D01*
X122390000Y-104562072D01*
X123990000Y-104562072D01*
X124114482Y-104549812D01*
X124234180Y-104513502D01*
X124344494Y-104454537D01*
X124441185Y-104375185D01*
X124520537Y-104278494D01*
X124579502Y-104168180D01*
X124615812Y-104048482D01*
X124628072Y-103924000D01*
X124628072Y-102324000D01*
X124615812Y-102199518D01*
X124579502Y-102079820D01*
X124520537Y-101969506D01*
X124518206Y-101966665D01*
X166967000Y-101966665D01*
X166967000Y-102249335D01*
X167022147Y-102526574D01*
X167130320Y-102787727D01*
X167287363Y-103022759D01*
X167487241Y-103222637D01*
X167689827Y-103358000D01*
X167487241Y-103493363D01*
X167287363Y-103693241D01*
X167130320Y-103928273D01*
X167022147Y-104189426D01*
X166967000Y-104466665D01*
X166967000Y-104749335D01*
X167022147Y-105026574D01*
X167130320Y-105287727D01*
X167287363Y-105522759D01*
X167487241Y-105722637D01*
X167722273Y-105879680D01*
X167983426Y-105987853D01*
X168260665Y-106043000D01*
X168543335Y-106043000D01*
X168820574Y-105987853D01*
X169081727Y-105879680D01*
X169316759Y-105722637D01*
X169516637Y-105522759D01*
X169673680Y-105287727D01*
X169781853Y-105026574D01*
X169837000Y-104749335D01*
X169837000Y-104466665D01*
X169781853Y-104189426D01*
X169673680Y-103928273D01*
X169516637Y-103693241D01*
X169316759Y-103493363D01*
X169114173Y-103358000D01*
X169316759Y-103222637D01*
X169516637Y-103022759D01*
X169673680Y-102787727D01*
X169781853Y-102526574D01*
X169832093Y-102274000D01*
X179105928Y-102274000D01*
X179105928Y-103974000D01*
X179118188Y-104098482D01*
X179154498Y-104218180D01*
X179213463Y-104328494D01*
X179292815Y-104425185D01*
X179389506Y-104504537D01*
X179499820Y-104563502D01*
X179619518Y-104599812D01*
X179744000Y-104612072D01*
X181444000Y-104612072D01*
X181568482Y-104599812D01*
X181688180Y-104563502D01*
X181798494Y-104504537D01*
X181895185Y-104425185D01*
X181974537Y-104328494D01*
X182033502Y-104218180D01*
X182069812Y-104098482D01*
X182082072Y-103974000D01*
X182082072Y-102274000D01*
X182069812Y-102149518D01*
X182033502Y-102029820D01*
X181974537Y-101919506D01*
X181895185Y-101822815D01*
X181798494Y-101743463D01*
X181688180Y-101684498D01*
X181615620Y-101662487D01*
X181747475Y-101530632D01*
X181909990Y-101287411D01*
X182021932Y-101017158D01*
X182079000Y-100730260D01*
X182079000Y-100437740D01*
X182021932Y-100150842D01*
X181909990Y-99880589D01*
X181747475Y-99637368D01*
X181540632Y-99430525D01*
X181297411Y-99268010D01*
X181027158Y-99156068D01*
X180740260Y-99099000D01*
X180447740Y-99099000D01*
X180160842Y-99156068D01*
X179890589Y-99268010D01*
X179647368Y-99430525D01*
X179440525Y-99637368D01*
X179278010Y-99880589D01*
X179166068Y-100150842D01*
X179109000Y-100437740D01*
X179109000Y-100730260D01*
X179166068Y-101017158D01*
X179278010Y-101287411D01*
X179440525Y-101530632D01*
X179572380Y-101662487D01*
X179499820Y-101684498D01*
X179389506Y-101743463D01*
X179292815Y-101822815D01*
X179213463Y-101919506D01*
X179154498Y-102029820D01*
X179118188Y-102149518D01*
X179105928Y-102274000D01*
X169832093Y-102274000D01*
X169837000Y-102249335D01*
X169837000Y-101966665D01*
X169781853Y-101689426D01*
X169673680Y-101428273D01*
X169516637Y-101193241D01*
X169316759Y-100993363D01*
X169081727Y-100836320D01*
X168820574Y-100728147D01*
X168543335Y-100673000D01*
X168260665Y-100673000D01*
X167983426Y-100728147D01*
X167722273Y-100836320D01*
X167487241Y-100993363D01*
X167287363Y-101193241D01*
X167130320Y-101428273D01*
X167022147Y-101689426D01*
X166967000Y-101966665D01*
X124518206Y-101966665D01*
X124441185Y-101872815D01*
X124344494Y-101793463D01*
X124234180Y-101734498D01*
X124114482Y-101698188D01*
X123990000Y-101685928D01*
X122390000Y-101685928D01*
X122265518Y-101698188D01*
X122145820Y-101734498D01*
X122035506Y-101793463D01*
X121938815Y-101872815D01*
X121859463Y-101969506D01*
X121800498Y-102079820D01*
X121764188Y-102199518D01*
X121751928Y-102324000D01*
X119381317Y-102324000D01*
X119304637Y-102209241D01*
X119104759Y-102009363D01*
X118869727Y-101852320D01*
X118608574Y-101744147D01*
X118331335Y-101689000D01*
X118048665Y-101689000D01*
X117771426Y-101744147D01*
X117510273Y-101852320D01*
X117275241Y-102009363D01*
X117075363Y-102209241D01*
X116918320Y-102444273D01*
X116810147Y-102705426D01*
X116755000Y-102982665D01*
X108927000Y-102982665D01*
X108927000Y-102977740D01*
X108869932Y-102690842D01*
X108757990Y-102420589D01*
X108595475Y-102177368D01*
X108463620Y-102045513D01*
X108536180Y-102023502D01*
X108646494Y-101964537D01*
X108743185Y-101885185D01*
X108822537Y-101788494D01*
X108881502Y-101678180D01*
X108917812Y-101558482D01*
X108930072Y-101434000D01*
X108930072Y-99734000D01*
X108917812Y-99609518D01*
X108881502Y-99489820D01*
X108822537Y-99379506D01*
X108743185Y-99282815D01*
X108646494Y-99203463D01*
X108536180Y-99144498D01*
X108416482Y-99108188D01*
X108292000Y-99095928D01*
X106592000Y-99095928D01*
X106467518Y-99108188D01*
X106347820Y-99144498D01*
X106237506Y-99203463D01*
X106140815Y-99282815D01*
X106061463Y-99379506D01*
X106002498Y-99489820D01*
X105966188Y-99609518D01*
X105953928Y-99734000D01*
X100710000Y-99734000D01*
X100710000Y-92021268D01*
X108909000Y-92021268D01*
X108909000Y-92382732D01*
X108979518Y-92737250D01*
X109117844Y-93071199D01*
X109318662Y-93371744D01*
X109574256Y-93627338D01*
X109874801Y-93828156D01*
X110208750Y-93966482D01*
X110563268Y-94037000D01*
X110924732Y-94037000D01*
X111279250Y-93966482D01*
X111613199Y-93828156D01*
X111913744Y-93627338D01*
X112169338Y-93371744D01*
X112370156Y-93071199D01*
X112508482Y-92737250D01*
X112579000Y-92382732D01*
X112579000Y-92021268D01*
X129229000Y-92021268D01*
X129229000Y-92382732D01*
X129299518Y-92737250D01*
X129437844Y-93071199D01*
X129638662Y-93371744D01*
X129894256Y-93627338D01*
X130194801Y-93828156D01*
X130528750Y-93966482D01*
X130883268Y-94037000D01*
X131244732Y-94037000D01*
X131599250Y-93966482D01*
X131933199Y-93828156D01*
X132233744Y-93627338D01*
X132489338Y-93371744D01*
X132690156Y-93071199D01*
X132828482Y-92737250D01*
X132899000Y-92382732D01*
X132899000Y-92275268D01*
X143707000Y-92275268D01*
X143707000Y-92636732D01*
X143777518Y-92991250D01*
X143915844Y-93325199D01*
X144116662Y-93625744D01*
X144372256Y-93881338D01*
X144672801Y-94082156D01*
X145006750Y-94220482D01*
X145361268Y-94291000D01*
X145722732Y-94291000D01*
X146077250Y-94220482D01*
X146411199Y-94082156D01*
X146711744Y-93881338D01*
X146967338Y-93625744D01*
X147168156Y-93325199D01*
X147306482Y-92991250D01*
X147377000Y-92636732D01*
X147377000Y-92275268D01*
X147306482Y-91920750D01*
X147219187Y-91710000D01*
X168843428Y-91710000D01*
X168843428Y-93710000D01*
X168855688Y-93834482D01*
X168891998Y-93954180D01*
X168950963Y-94064494D01*
X169030315Y-94161185D01*
X169127006Y-94240537D01*
X169237320Y-94299502D01*
X169357018Y-94335812D01*
X169481500Y-94348072D01*
X171386500Y-94348072D01*
X171510982Y-94335812D01*
X171630680Y-94299502D01*
X171740994Y-94240537D01*
X171837685Y-94161185D01*
X171917037Y-94064494D01*
X171961905Y-93980553D01*
X172087766Y-94083845D01*
X172363552Y-94231255D01*
X172662797Y-94322030D01*
X172974000Y-94352681D01*
X173285204Y-94322030D01*
X173584449Y-94231255D01*
X173860235Y-94083845D01*
X174101963Y-93885463D01*
X174244000Y-93712391D01*
X174386037Y-93885463D01*
X174627766Y-94083845D01*
X174903552Y-94231255D01*
X175202797Y-94322030D01*
X175514000Y-94352681D01*
X175825204Y-94322030D01*
X176124449Y-94231255D01*
X176400235Y-94083845D01*
X176641963Y-93885463D01*
X176840345Y-93643734D01*
X176987755Y-93367948D01*
X177078530Y-93068703D01*
X177101500Y-92835485D01*
X177101500Y-92584514D01*
X177078530Y-92351296D01*
X176987755Y-92052051D01*
X176840345Y-91776265D01*
X176641963Y-91534537D01*
X176400234Y-91336155D01*
X176124448Y-91188745D01*
X175825203Y-91097970D01*
X175514000Y-91067319D01*
X175202796Y-91097970D01*
X174903551Y-91188745D01*
X174627765Y-91336155D01*
X174386037Y-91534537D01*
X174244000Y-91707609D01*
X174101963Y-91534537D01*
X173860234Y-91336155D01*
X173584448Y-91188745D01*
X173285203Y-91097970D01*
X172974000Y-91067319D01*
X172662796Y-91097970D01*
X172363551Y-91188745D01*
X172087765Y-91336155D01*
X171961905Y-91439446D01*
X171917037Y-91355506D01*
X171837685Y-91258815D01*
X171740994Y-91179463D01*
X171630680Y-91120498D01*
X171510982Y-91084188D01*
X171386500Y-91071928D01*
X169481500Y-91071928D01*
X169357018Y-91084188D01*
X169237320Y-91120498D01*
X169127006Y-91179463D01*
X169030315Y-91258815D01*
X168950963Y-91355506D01*
X168891998Y-91465820D01*
X168855688Y-91585518D01*
X168843428Y-91710000D01*
X147219187Y-91710000D01*
X147168156Y-91586801D01*
X146967338Y-91286256D01*
X146711744Y-91030662D01*
X146411199Y-90829844D01*
X146077250Y-90691518D01*
X145722732Y-90621000D01*
X145361268Y-90621000D01*
X145006750Y-90691518D01*
X144672801Y-90829844D01*
X144372256Y-91030662D01*
X144116662Y-91286256D01*
X143915844Y-91586801D01*
X143777518Y-91920750D01*
X143707000Y-92275268D01*
X132899000Y-92275268D01*
X132899000Y-92021268D01*
X132828482Y-91666750D01*
X132690156Y-91332801D01*
X132489338Y-91032256D01*
X132233744Y-90776662D01*
X131933199Y-90575844D01*
X131599250Y-90437518D01*
X131244732Y-90367000D01*
X130883268Y-90367000D01*
X130528750Y-90437518D01*
X130194801Y-90575844D01*
X129894256Y-90776662D01*
X129638662Y-91032256D01*
X129437844Y-91332801D01*
X129299518Y-91666750D01*
X129229000Y-92021268D01*
X112579000Y-92021268D01*
X112508482Y-91666750D01*
X112370156Y-91332801D01*
X112169338Y-91032256D01*
X111913744Y-90776662D01*
X111613199Y-90575844D01*
X111279250Y-90437518D01*
X110924732Y-90367000D01*
X110563268Y-90367000D01*
X110208750Y-90437518D01*
X109874801Y-90575844D01*
X109574256Y-90776662D01*
X109318662Y-91032256D01*
X109117844Y-91332801D01*
X108979518Y-91666750D01*
X108909000Y-92021268D01*
X100710000Y-92021268D01*
X100710000Y-85471000D01*
X104648000Y-85471000D01*
X104672776Y-85468560D01*
X104696601Y-85461333D01*
X104718557Y-85449597D01*
X104737803Y-85433803D01*
X104753597Y-85414557D01*
X104765333Y-85392601D01*
X104772560Y-85368776D01*
X104775000Y-85344000D01*
X104775000Y-80710000D01*
X183769000Y-80710000D01*
X183769000Y-84582000D01*
%TA.AperFunction,NonConductor*%
D21*
G36*
X183769000Y-84582000D02*
G01*
X183771440Y-84606776D01*
X183778667Y-84630601D01*
X183790403Y-84652557D01*
X183806197Y-84671803D01*
X183825443Y-84687597D01*
X183847399Y-84699333D01*
X183871224Y-84706560D01*
X183896000Y-84709000D01*
X189290000Y-84709000D01*
X189290001Y-112395000D01*
X183896000Y-112395000D01*
X183871224Y-112397440D01*
X183847399Y-112404667D01*
X183825443Y-112416403D01*
X183806197Y-112432197D01*
X183790403Y-112451443D01*
X183778667Y-112473399D01*
X183771440Y-112497224D01*
X183769000Y-112522000D01*
X183769000Y-119290000D01*
X105283000Y-119290000D01*
X105283000Y-114300000D01*
X105279752Y-114271462D01*
X105271807Y-114247868D01*
X105259411Y-114226277D01*
X105243041Y-114207519D01*
X105223327Y-114192315D01*
X105201025Y-114181249D01*
X105176992Y-114174747D01*
X105152153Y-114173058D01*
X100710000Y-114307669D01*
X100710000Y-112595268D01*
X109671000Y-112595268D01*
X109671000Y-112956732D01*
X109741518Y-113311250D01*
X109879844Y-113645199D01*
X110080662Y-113945744D01*
X110336256Y-114201338D01*
X110636801Y-114402156D01*
X110970750Y-114540482D01*
X111325268Y-114611000D01*
X111686732Y-114611000D01*
X112041250Y-114540482D01*
X112375199Y-114402156D01*
X112675744Y-114201338D01*
X112931338Y-113945744D01*
X113132156Y-113645199D01*
X113270482Y-113311250D01*
X113341000Y-112956732D01*
X113341000Y-112595268D01*
X129991000Y-112595268D01*
X129991000Y-112956732D01*
X130061518Y-113311250D01*
X130199844Y-113645199D01*
X130400662Y-113945744D01*
X130656256Y-114201338D01*
X130956801Y-114402156D01*
X131290750Y-114540482D01*
X131645268Y-114611000D01*
X132006732Y-114611000D01*
X132361250Y-114540482D01*
X132695199Y-114402156D01*
X132995744Y-114201338D01*
X133251338Y-113945744D01*
X133452156Y-113645199D01*
X133590482Y-113311250D01*
X133661000Y-112956732D01*
X133661000Y-112595268D01*
X143707000Y-112595268D01*
X143707000Y-112956732D01*
X143777518Y-113311250D01*
X143915844Y-113645199D01*
X144116662Y-113945744D01*
X144372256Y-114201338D01*
X144672801Y-114402156D01*
X145006750Y-114540482D01*
X145361268Y-114611000D01*
X145722732Y-114611000D01*
X146077250Y-114540482D01*
X146411199Y-114402156D01*
X146711744Y-114201338D01*
X146967338Y-113945744D01*
X147168156Y-113645199D01*
X147306482Y-113311250D01*
X147377000Y-112956732D01*
X147377000Y-112595268D01*
X147306482Y-112240750D01*
X147168156Y-111906801D01*
X146967338Y-111606256D01*
X146715898Y-111354816D01*
X155691000Y-111354816D01*
X155691000Y-111657184D01*
X155749989Y-111953743D01*
X155865701Y-112233095D01*
X156033688Y-112484505D01*
X156247495Y-112698312D01*
X156498905Y-112866299D01*
X156778257Y-112982011D01*
X157074816Y-113041000D01*
X157377184Y-113041000D01*
X157673743Y-112982011D01*
X157953095Y-112866299D01*
X158204505Y-112698312D01*
X158270944Y-112631873D01*
X158276498Y-112650180D01*
X158335463Y-112760494D01*
X158414815Y-112857185D01*
X158511506Y-112936537D01*
X158621820Y-112995502D01*
X158741518Y-113031812D01*
X158866000Y-113044072D01*
X160666000Y-113044072D01*
X160790482Y-113031812D01*
X160910180Y-112995502D01*
X161020494Y-112936537D01*
X161117185Y-112857185D01*
X161196537Y-112760494D01*
X161255502Y-112650180D01*
X161291812Y-112530482D01*
X161304072Y-112406000D01*
X161304072Y-110606000D01*
X161291812Y-110481518D01*
X161255502Y-110361820D01*
X161196537Y-110251506D01*
X161117185Y-110154815D01*
X161020494Y-110075463D01*
X160910180Y-110016498D01*
X160790482Y-109980188D01*
X160666000Y-109967928D01*
X158866000Y-109967928D01*
X158741518Y-109980188D01*
X158621820Y-110016498D01*
X158511506Y-110075463D01*
X158414815Y-110154815D01*
X158335463Y-110251506D01*
X158276498Y-110361820D01*
X158270944Y-110380127D01*
X158204505Y-110313688D01*
X157953095Y-110145701D01*
X157673743Y-110029989D01*
X157377184Y-109971000D01*
X157074816Y-109971000D01*
X156778257Y-110029989D01*
X156498905Y-110145701D01*
X156247495Y-110313688D01*
X156033688Y-110527495D01*
X155865701Y-110778905D01*
X155749989Y-111058257D01*
X155691000Y-111354816D01*
X146715898Y-111354816D01*
X146711744Y-111350662D01*
X146411199Y-111149844D01*
X146077250Y-111011518D01*
X145722732Y-110941000D01*
X145361268Y-110941000D01*
X145006750Y-111011518D01*
X144672801Y-111149844D01*
X144372256Y-111350662D01*
X144116662Y-111606256D01*
X143915844Y-111906801D01*
X143777518Y-112240750D01*
X143707000Y-112595268D01*
X133661000Y-112595268D01*
X133590482Y-112240750D01*
X133452156Y-111906801D01*
X133251338Y-111606256D01*
X132995744Y-111350662D01*
X132695199Y-111149844D01*
X132361250Y-111011518D01*
X132006732Y-110941000D01*
X131645268Y-110941000D01*
X131290750Y-111011518D01*
X130956801Y-111149844D01*
X130656256Y-111350662D01*
X130400662Y-111606256D01*
X130199844Y-111906801D01*
X130061518Y-112240750D01*
X129991000Y-112595268D01*
X113341000Y-112595268D01*
X113270482Y-112240750D01*
X113132156Y-111906801D01*
X112931338Y-111606256D01*
X112675744Y-111350662D01*
X112375199Y-111149844D01*
X112041250Y-111011518D01*
X111686732Y-110941000D01*
X111325268Y-110941000D01*
X110970750Y-111011518D01*
X110636801Y-111149844D01*
X110336256Y-111350662D01*
X110080662Y-111606256D01*
X109879844Y-111906801D01*
X109741518Y-112240750D01*
X109671000Y-112595268D01*
X100710000Y-112595268D01*
X100710000Y-99734000D01*
X105953928Y-99734000D01*
X105953928Y-101434000D01*
X105966188Y-101558482D01*
X106002498Y-101678180D01*
X106061463Y-101788494D01*
X106140815Y-101885185D01*
X106237506Y-101964537D01*
X106347820Y-102023502D01*
X106420380Y-102045513D01*
X106288525Y-102177368D01*
X106126010Y-102420589D01*
X106014068Y-102690842D01*
X105957000Y-102977740D01*
X105957000Y-103270260D01*
X106014068Y-103557158D01*
X106126010Y-103827411D01*
X106288525Y-104070632D01*
X106495368Y-104277475D01*
X106669760Y-104394000D01*
X106495368Y-104510525D01*
X106288525Y-104717368D01*
X106126010Y-104960589D01*
X106014068Y-105230842D01*
X105957000Y-105517740D01*
X105957000Y-105810260D01*
X106014068Y-106097158D01*
X106126010Y-106367411D01*
X106288525Y-106610632D01*
X106495368Y-106817475D01*
X106738589Y-106979990D01*
X107008842Y-107091932D01*
X107295740Y-107149000D01*
X107588260Y-107149000D01*
X107875158Y-107091932D01*
X108145411Y-106979990D01*
X108388632Y-106817475D01*
X108595475Y-106610632D01*
X108757990Y-106367411D01*
X108869932Y-106097158D01*
X108927000Y-105810260D01*
X108927000Y-105517740D01*
X108869932Y-105230842D01*
X108757990Y-104960589D01*
X108595475Y-104717368D01*
X108388632Y-104510525D01*
X108214240Y-104394000D01*
X108388632Y-104277475D01*
X108595475Y-104070632D01*
X108757990Y-103827411D01*
X108869932Y-103557158D01*
X108927000Y-103270260D01*
X108927000Y-102982665D01*
X116755000Y-102982665D01*
X116755000Y-103265335D01*
X116810147Y-103542574D01*
X116918320Y-103803727D01*
X117075363Y-104038759D01*
X117275241Y-104238637D01*
X117510273Y-104395680D01*
X117771426Y-104503853D01*
X118048665Y-104559000D01*
X118331335Y-104559000D01*
X118608574Y-104503853D01*
X118869727Y-104395680D01*
X119104759Y-104238637D01*
X119304637Y-104038759D01*
X119461680Y-103803727D01*
X119569853Y-103542574D01*
X119625000Y-103265335D01*
X119625000Y-102982665D01*
X119569853Y-102705426D01*
X119461680Y-102444273D01*
X119381317Y-102324000D01*
X121751928Y-102324000D01*
X121751928Y-103924000D01*
X121764188Y-104048482D01*
X121800498Y-104168180D01*
X121859463Y-104278494D01*
X121938815Y-104375185D01*
X122035506Y-104454537D01*
X122145820Y-104513502D01*
X122265518Y-104549812D01*
X122390000Y-104562072D01*
X123990000Y-104562072D01*
X124114482Y-104549812D01*
X124234180Y-104513502D01*
X124344494Y-104454537D01*
X124441185Y-104375185D01*
X124520537Y-104278494D01*
X124579502Y-104168180D01*
X124615812Y-104048482D01*
X124628072Y-103924000D01*
X124628072Y-102324000D01*
X124615812Y-102199518D01*
X124579502Y-102079820D01*
X124520537Y-101969506D01*
X124518206Y-101966665D01*
X166967000Y-101966665D01*
X166967000Y-102249335D01*
X167022147Y-102526574D01*
X167130320Y-102787727D01*
X167287363Y-103022759D01*
X167487241Y-103222637D01*
X167689827Y-103358000D01*
X167487241Y-103493363D01*
X167287363Y-103693241D01*
X167130320Y-103928273D01*
X167022147Y-104189426D01*
X166967000Y-104466665D01*
X166967000Y-104749335D01*
X167022147Y-105026574D01*
X167130320Y-105287727D01*
X167287363Y-105522759D01*
X167487241Y-105722637D01*
X167722273Y-105879680D01*
X167983426Y-105987853D01*
X168260665Y-106043000D01*
X168543335Y-106043000D01*
X168820574Y-105987853D01*
X169081727Y-105879680D01*
X169316759Y-105722637D01*
X169516637Y-105522759D01*
X169673680Y-105287727D01*
X169781853Y-105026574D01*
X169837000Y-104749335D01*
X169837000Y-104466665D01*
X169781853Y-104189426D01*
X169673680Y-103928273D01*
X169516637Y-103693241D01*
X169316759Y-103493363D01*
X169114173Y-103358000D01*
X169316759Y-103222637D01*
X169516637Y-103022759D01*
X169673680Y-102787727D01*
X169781853Y-102526574D01*
X169832093Y-102274000D01*
X179105928Y-102274000D01*
X179105928Y-103974000D01*
X179118188Y-104098482D01*
X179154498Y-104218180D01*
X179213463Y-104328494D01*
X179292815Y-104425185D01*
X179389506Y-104504537D01*
X179499820Y-104563502D01*
X179619518Y-104599812D01*
X179744000Y-104612072D01*
X181444000Y-104612072D01*
X181568482Y-104599812D01*
X181688180Y-104563502D01*
X181798494Y-104504537D01*
X181895185Y-104425185D01*
X181974537Y-104328494D01*
X182033502Y-104218180D01*
X182069812Y-104098482D01*
X182082072Y-103974000D01*
X182082072Y-102274000D01*
X182069812Y-102149518D01*
X182033502Y-102029820D01*
X181974537Y-101919506D01*
X181895185Y-101822815D01*
X181798494Y-101743463D01*
X181688180Y-101684498D01*
X181615620Y-101662487D01*
X181747475Y-101530632D01*
X181909990Y-101287411D01*
X182021932Y-101017158D01*
X182079000Y-100730260D01*
X182079000Y-100437740D01*
X182021932Y-100150842D01*
X181909990Y-99880589D01*
X181747475Y-99637368D01*
X181540632Y-99430525D01*
X181297411Y-99268010D01*
X181027158Y-99156068D01*
X180740260Y-99099000D01*
X180447740Y-99099000D01*
X180160842Y-99156068D01*
X179890589Y-99268010D01*
X179647368Y-99430525D01*
X179440525Y-99637368D01*
X179278010Y-99880589D01*
X179166068Y-100150842D01*
X179109000Y-100437740D01*
X179109000Y-100730260D01*
X179166068Y-101017158D01*
X179278010Y-101287411D01*
X179440525Y-101530632D01*
X179572380Y-101662487D01*
X179499820Y-101684498D01*
X179389506Y-101743463D01*
X179292815Y-101822815D01*
X179213463Y-101919506D01*
X179154498Y-102029820D01*
X179118188Y-102149518D01*
X179105928Y-102274000D01*
X169832093Y-102274000D01*
X169837000Y-102249335D01*
X169837000Y-101966665D01*
X169781853Y-101689426D01*
X169673680Y-101428273D01*
X169516637Y-101193241D01*
X169316759Y-100993363D01*
X169081727Y-100836320D01*
X168820574Y-100728147D01*
X168543335Y-100673000D01*
X168260665Y-100673000D01*
X167983426Y-100728147D01*
X167722273Y-100836320D01*
X167487241Y-100993363D01*
X167287363Y-101193241D01*
X167130320Y-101428273D01*
X167022147Y-101689426D01*
X166967000Y-101966665D01*
X124518206Y-101966665D01*
X124441185Y-101872815D01*
X124344494Y-101793463D01*
X124234180Y-101734498D01*
X124114482Y-101698188D01*
X123990000Y-101685928D01*
X122390000Y-101685928D01*
X122265518Y-101698188D01*
X122145820Y-101734498D01*
X122035506Y-101793463D01*
X121938815Y-101872815D01*
X121859463Y-101969506D01*
X121800498Y-102079820D01*
X121764188Y-102199518D01*
X121751928Y-102324000D01*
X119381317Y-102324000D01*
X119304637Y-102209241D01*
X119104759Y-102009363D01*
X118869727Y-101852320D01*
X118608574Y-101744147D01*
X118331335Y-101689000D01*
X118048665Y-101689000D01*
X117771426Y-101744147D01*
X117510273Y-101852320D01*
X117275241Y-102009363D01*
X117075363Y-102209241D01*
X116918320Y-102444273D01*
X116810147Y-102705426D01*
X116755000Y-102982665D01*
X108927000Y-102982665D01*
X108927000Y-102977740D01*
X108869932Y-102690842D01*
X108757990Y-102420589D01*
X108595475Y-102177368D01*
X108463620Y-102045513D01*
X108536180Y-102023502D01*
X108646494Y-101964537D01*
X108743185Y-101885185D01*
X108822537Y-101788494D01*
X108881502Y-101678180D01*
X108917812Y-101558482D01*
X108930072Y-101434000D01*
X108930072Y-99734000D01*
X108917812Y-99609518D01*
X108881502Y-99489820D01*
X108822537Y-99379506D01*
X108743185Y-99282815D01*
X108646494Y-99203463D01*
X108536180Y-99144498D01*
X108416482Y-99108188D01*
X108292000Y-99095928D01*
X106592000Y-99095928D01*
X106467518Y-99108188D01*
X106347820Y-99144498D01*
X106237506Y-99203463D01*
X106140815Y-99282815D01*
X106061463Y-99379506D01*
X106002498Y-99489820D01*
X105966188Y-99609518D01*
X105953928Y-99734000D01*
X100710000Y-99734000D01*
X100710000Y-92021268D01*
X108909000Y-92021268D01*
X108909000Y-92382732D01*
X108979518Y-92737250D01*
X109117844Y-93071199D01*
X109318662Y-93371744D01*
X109574256Y-93627338D01*
X109874801Y-93828156D01*
X110208750Y-93966482D01*
X110563268Y-94037000D01*
X110924732Y-94037000D01*
X111279250Y-93966482D01*
X111613199Y-93828156D01*
X111913744Y-93627338D01*
X112169338Y-93371744D01*
X112370156Y-93071199D01*
X112508482Y-92737250D01*
X112579000Y-92382732D01*
X112579000Y-92021268D01*
X129229000Y-92021268D01*
X129229000Y-92382732D01*
X129299518Y-92737250D01*
X129437844Y-93071199D01*
X129638662Y-93371744D01*
X129894256Y-93627338D01*
X130194801Y-93828156D01*
X130528750Y-93966482D01*
X130883268Y-94037000D01*
X131244732Y-94037000D01*
X131599250Y-93966482D01*
X131933199Y-93828156D01*
X132233744Y-93627338D01*
X132489338Y-93371744D01*
X132690156Y-93071199D01*
X132828482Y-92737250D01*
X132899000Y-92382732D01*
X132899000Y-92275268D01*
X143707000Y-92275268D01*
X143707000Y-92636732D01*
X143777518Y-92991250D01*
X143915844Y-93325199D01*
X144116662Y-93625744D01*
X144372256Y-93881338D01*
X144672801Y-94082156D01*
X145006750Y-94220482D01*
X145361268Y-94291000D01*
X145722732Y-94291000D01*
X146077250Y-94220482D01*
X146411199Y-94082156D01*
X146711744Y-93881338D01*
X146967338Y-93625744D01*
X147168156Y-93325199D01*
X147306482Y-92991250D01*
X147377000Y-92636732D01*
X147377000Y-92275268D01*
X147306482Y-91920750D01*
X147219187Y-91710000D01*
X168843428Y-91710000D01*
X168843428Y-93710000D01*
X168855688Y-93834482D01*
X168891998Y-93954180D01*
X168950963Y-94064494D01*
X169030315Y-94161185D01*
X169127006Y-94240537D01*
X169237320Y-94299502D01*
X169357018Y-94335812D01*
X169481500Y-94348072D01*
X171386500Y-94348072D01*
X171510982Y-94335812D01*
X171630680Y-94299502D01*
X171740994Y-94240537D01*
X171837685Y-94161185D01*
X171917037Y-94064494D01*
X171961905Y-93980553D01*
X172087766Y-94083845D01*
X172363552Y-94231255D01*
X172662797Y-94322030D01*
X172974000Y-94352681D01*
X173285204Y-94322030D01*
X173584449Y-94231255D01*
X173860235Y-94083845D01*
X174101963Y-93885463D01*
X174244000Y-93712391D01*
X174386037Y-93885463D01*
X174627766Y-94083845D01*
X174903552Y-94231255D01*
X175202797Y-94322030D01*
X175514000Y-94352681D01*
X175825204Y-94322030D01*
X176124449Y-94231255D01*
X176400235Y-94083845D01*
X176641963Y-93885463D01*
X176840345Y-93643734D01*
X176987755Y-93367948D01*
X177078530Y-93068703D01*
X177101500Y-92835485D01*
X177101500Y-92584514D01*
X177078530Y-92351296D01*
X176987755Y-92052051D01*
X176840345Y-91776265D01*
X176641963Y-91534537D01*
X176400234Y-91336155D01*
X176124448Y-91188745D01*
X175825203Y-91097970D01*
X175514000Y-91067319D01*
X175202796Y-91097970D01*
X174903551Y-91188745D01*
X174627765Y-91336155D01*
X174386037Y-91534537D01*
X174244000Y-91707609D01*
X174101963Y-91534537D01*
X173860234Y-91336155D01*
X173584448Y-91188745D01*
X173285203Y-91097970D01*
X172974000Y-91067319D01*
X172662796Y-91097970D01*
X172363551Y-91188745D01*
X172087765Y-91336155D01*
X171961905Y-91439446D01*
X171917037Y-91355506D01*
X171837685Y-91258815D01*
X171740994Y-91179463D01*
X171630680Y-91120498D01*
X171510982Y-91084188D01*
X171386500Y-91071928D01*
X169481500Y-91071928D01*
X169357018Y-91084188D01*
X169237320Y-91120498D01*
X169127006Y-91179463D01*
X169030315Y-91258815D01*
X168950963Y-91355506D01*
X168891998Y-91465820D01*
X168855688Y-91585518D01*
X168843428Y-91710000D01*
X147219187Y-91710000D01*
X147168156Y-91586801D01*
X146967338Y-91286256D01*
X146711744Y-91030662D01*
X146411199Y-90829844D01*
X146077250Y-90691518D01*
X145722732Y-90621000D01*
X145361268Y-90621000D01*
X145006750Y-90691518D01*
X144672801Y-90829844D01*
X144372256Y-91030662D01*
X144116662Y-91286256D01*
X143915844Y-91586801D01*
X143777518Y-91920750D01*
X143707000Y-92275268D01*
X132899000Y-92275268D01*
X132899000Y-92021268D01*
X132828482Y-91666750D01*
X132690156Y-91332801D01*
X132489338Y-91032256D01*
X132233744Y-90776662D01*
X131933199Y-90575844D01*
X131599250Y-90437518D01*
X131244732Y-90367000D01*
X130883268Y-90367000D01*
X130528750Y-90437518D01*
X130194801Y-90575844D01*
X129894256Y-90776662D01*
X129638662Y-91032256D01*
X129437844Y-91332801D01*
X129299518Y-91666750D01*
X129229000Y-92021268D01*
X112579000Y-92021268D01*
X112508482Y-91666750D01*
X112370156Y-91332801D01*
X112169338Y-91032256D01*
X111913744Y-90776662D01*
X111613199Y-90575844D01*
X111279250Y-90437518D01*
X110924732Y-90367000D01*
X110563268Y-90367000D01*
X110208750Y-90437518D01*
X109874801Y-90575844D01*
X109574256Y-90776662D01*
X109318662Y-91032256D01*
X109117844Y-91332801D01*
X108979518Y-91666750D01*
X108909000Y-92021268D01*
X100710000Y-92021268D01*
X100710000Y-85471000D01*
X104648000Y-85471000D01*
X104672776Y-85468560D01*
X104696601Y-85461333D01*
X104718557Y-85449597D01*
X104737803Y-85433803D01*
X104753597Y-85414557D01*
X104765333Y-85392601D01*
X104772560Y-85368776D01*
X104775000Y-85344000D01*
X104775000Y-80710000D01*
X183769000Y-80710000D01*
X183769000Y-84582000D01*
G37*
%TD.AperFunction*%
M02*
