M48
; DRILL file {KiCad (5.1.10)-1} date 08/31/24 09:34:47
; FORMAT={-:-/ absolute / inch / decimal}
; #@! TF.CreationDate,2024-08-31T09:34:47+05:30
; #@! TF.GenerationSoftware,Kicad,Pcbnew,(5.1.10)-1
; #@! TF.FileFunction,Plated,1,2,PTH
FMAT,2
INCH
T1C0.0315
T2C0.0354
T3C0.0394
T4C0.0433
T5C0.0472
%
G90
G05
T1
X4.6531Y-4.06
X4.85Y-4.06
X6.63Y-4.02
X6.63Y-4.1184
T2
X6.19Y-4.39
X6.29Y-4.39
T3
X4.23Y-3.96
X4.23Y-4.06
X4.23Y-4.16
X7.11Y-3.96
X7.11Y-4.06
T4
X6.71Y-3.65
X6.81Y-3.65
X6.91Y-3.65
T5
X4.36Y-3.63
X4.39Y-4.44
X5.16Y-3.63
X5.19Y-4.44
X5.73Y-3.64
X5.73Y-4.44
T0
M30
