%TF.GenerationSoftware,KiCad,Pcbnew,(5.1.10)-1*%
%TF.CreationDate,2024-08-31T09:34:39+05:30*%
%TF.ProjectId,single layer PCB,73696e67-6c65-4206-9c61-796572205043,rev?*%
%TF.SameCoordinates,Original*%
%TF.FileFunction,Legend,Top*%
%TF.FilePolarity,Positive*%
%FSLAX46Y46*%
G04 Gerber Fmt 4.6, Leading zero omitted, Abs format (unit mm)*
G04 Created by KiCad (PCBNEW (5.1.10)-1) date 2024-08-31 09:34:39*
%MOMM*%
%LPD*%
G01*
G04 APERTURE LIST*
%ADD10C,0.120000*%
%ADD11C,0.150000*%
G04 APERTURE END LIST*
D10*
%TO.C,U1*%
X174825000Y-89440000D02*
X174825000Y-90950000D01*
X171124000Y-89440000D02*
X171124000Y-90950000D01*
X167854000Y-90950000D02*
X178094000Y-90950000D01*
X178094000Y-89440000D02*
X178094000Y-94081000D01*
X167854000Y-89440000D02*
X167854000Y-94081000D01*
X167854000Y-94081000D02*
X178094000Y-94081000D01*
X167854000Y-89440000D02*
X178094000Y-89440000D01*
%TO.C,R1*%
X145542000Y-111336000D02*
X145542000Y-107686000D01*
X145542000Y-93896000D02*
X145542000Y-97546000D01*
X147462000Y-107686000D02*
X147462000Y-97546000D01*
X143622000Y-107686000D02*
X147462000Y-107686000D01*
X143622000Y-97546000D02*
X143622000Y-107686000D01*
X147462000Y-97546000D02*
X143622000Y-97546000D01*
%TO.C,J2*%
X181924000Y-104454000D02*
X180594000Y-104454000D01*
X181924000Y-103124000D02*
X181924000Y-104454000D01*
X181924000Y-101854000D02*
X179264000Y-101854000D01*
X179264000Y-101854000D02*
X179264000Y-99254000D01*
X181924000Y-101854000D02*
X181924000Y-99254000D01*
X181924000Y-99254000D02*
X179264000Y-99254000D01*
%TO.C,J1*%
X106112000Y-99254000D02*
X107442000Y-99254000D01*
X106112000Y-100584000D02*
X106112000Y-99254000D01*
X106112000Y-101854000D02*
X108772000Y-101854000D01*
X108772000Y-101854000D02*
X108772000Y-106994000D01*
X106112000Y-101854000D02*
X106112000Y-106994000D01*
X106112000Y-106994000D02*
X108772000Y-106994000D01*
%TO.C,D3*%
X161056000Y-113051000D02*
X161056000Y-109961000D01*
X160996000Y-111506000D02*
G75*
G03*
X160996000Y-111506000I-2500000J0D01*
G01*
X155506000Y-111506462D02*
G75*
G02*
X161056000Y-109961170I2990000J462D01*
G01*
X155506000Y-111505538D02*
G75*
G03*
X161056000Y-113050830I2990000J-462D01*
G01*
%TO.C,D2*%
X112946000Y-112776000D02*
X116596000Y-112776000D01*
X130386000Y-112776000D02*
X126736000Y-112776000D01*
X116596000Y-114696000D02*
X126736000Y-114696000D01*
X116596000Y-110856000D02*
X116596000Y-114696000D01*
X126736000Y-110856000D02*
X116596000Y-110856000D01*
X126736000Y-114696000D02*
X126736000Y-110856000D01*
%TO.C,D1*%
X112184000Y-92202000D02*
X115834000Y-92202000D01*
X129624000Y-92202000D02*
X125974000Y-92202000D01*
X115834000Y-94122000D02*
X125974000Y-94122000D01*
X115834000Y-90282000D02*
X115834000Y-94122000D01*
X125974000Y-90282000D02*
X115834000Y-90282000D01*
X125974000Y-94122000D02*
X125974000Y-90282000D01*
%TO.C,C2*%
X169772000Y-105978000D02*
X167032000Y-105978000D01*
X169772000Y-100738000D02*
X167032000Y-100738000D01*
X167032000Y-100738000D02*
X167032000Y-105978000D01*
X169772000Y-100738000D02*
X169772000Y-105978000D01*
%TO.C,C1*%
X124699698Y-105839000D02*
X124699698Y-105039000D01*
X125099698Y-105439000D02*
X124299698Y-105439000D01*
X116609000Y-103657000D02*
X116609000Y-102591000D01*
X116649000Y-103892000D02*
X116649000Y-102356000D01*
X116689000Y-104072000D02*
X116689000Y-102176000D01*
X116729000Y-104222000D02*
X116729000Y-102026000D01*
X116769000Y-104353000D02*
X116769000Y-101895000D01*
X116809000Y-104470000D02*
X116809000Y-101778000D01*
X116849000Y-104577000D02*
X116849000Y-101671000D01*
X116889000Y-104676000D02*
X116889000Y-101572000D01*
X116929000Y-104769000D02*
X116929000Y-101479000D01*
X116969000Y-104855000D02*
X116969000Y-101393000D01*
X117009000Y-104937000D02*
X117009000Y-101311000D01*
X117049000Y-105014000D02*
X117049000Y-101234000D01*
X117089000Y-105088000D02*
X117089000Y-101160000D01*
X117129000Y-105158000D02*
X117129000Y-101090000D01*
X117169000Y-102084000D02*
X117169000Y-101022000D01*
X117169000Y-105226000D02*
X117169000Y-104164000D01*
X117209000Y-102084000D02*
X117209000Y-100958000D01*
X117209000Y-105290000D02*
X117209000Y-104164000D01*
X117249000Y-102084000D02*
X117249000Y-100896000D01*
X117249000Y-105352000D02*
X117249000Y-104164000D01*
X117289000Y-102084000D02*
X117289000Y-100837000D01*
X117289000Y-105411000D02*
X117289000Y-104164000D01*
X117329000Y-102084000D02*
X117329000Y-100779000D01*
X117329000Y-105469000D02*
X117329000Y-104164000D01*
X117369000Y-102084000D02*
X117369000Y-100724000D01*
X117369000Y-105524000D02*
X117369000Y-104164000D01*
X117409000Y-102084000D02*
X117409000Y-100670000D01*
X117409000Y-105578000D02*
X117409000Y-104164000D01*
X117449000Y-102084000D02*
X117449000Y-100619000D01*
X117449000Y-105629000D02*
X117449000Y-104164000D01*
X117489000Y-102084000D02*
X117489000Y-100568000D01*
X117489000Y-105680000D02*
X117489000Y-104164000D01*
X117529000Y-102084000D02*
X117529000Y-100520000D01*
X117529000Y-105728000D02*
X117529000Y-104164000D01*
X117569000Y-102084000D02*
X117569000Y-100473000D01*
X117569000Y-105775000D02*
X117569000Y-104164000D01*
X117609000Y-102084000D02*
X117609000Y-100427000D01*
X117609000Y-105821000D02*
X117609000Y-104164000D01*
X117649000Y-102084000D02*
X117649000Y-100383000D01*
X117649000Y-105865000D02*
X117649000Y-104164000D01*
X117689000Y-102084000D02*
X117689000Y-100340000D01*
X117689000Y-105908000D02*
X117689000Y-104164000D01*
X117729000Y-102084000D02*
X117729000Y-100298000D01*
X117729000Y-105950000D02*
X117729000Y-104164000D01*
X117769000Y-102084000D02*
X117769000Y-100257000D01*
X117769000Y-105991000D02*
X117769000Y-104164000D01*
X117809000Y-102084000D02*
X117809000Y-100217000D01*
X117809000Y-106031000D02*
X117809000Y-104164000D01*
X117849000Y-102084000D02*
X117849000Y-100179000D01*
X117849000Y-106069000D02*
X117849000Y-104164000D01*
X117889000Y-102084000D02*
X117889000Y-100141000D01*
X117889000Y-106107000D02*
X117889000Y-104164000D01*
X117929000Y-102084000D02*
X117929000Y-100105000D01*
X117929000Y-106143000D02*
X117929000Y-104164000D01*
X117969000Y-102084000D02*
X117969000Y-100069000D01*
X117969000Y-106179000D02*
X117969000Y-104164000D01*
X118009000Y-102084000D02*
X118009000Y-100034000D01*
X118009000Y-106214000D02*
X118009000Y-104164000D01*
X118049000Y-102084000D02*
X118049000Y-100000000D01*
X118049000Y-106248000D02*
X118049000Y-104164000D01*
X118089000Y-102084000D02*
X118089000Y-99968000D01*
X118089000Y-106280000D02*
X118089000Y-104164000D01*
X118129000Y-102084000D02*
X118129000Y-99935000D01*
X118129000Y-106313000D02*
X118129000Y-104164000D01*
X118169000Y-102084000D02*
X118169000Y-99904000D01*
X118169000Y-106344000D02*
X118169000Y-104164000D01*
X118209000Y-102084000D02*
X118209000Y-99874000D01*
X118209000Y-106374000D02*
X118209000Y-104164000D01*
X118249000Y-102084000D02*
X118249000Y-99844000D01*
X118249000Y-106404000D02*
X118249000Y-104164000D01*
X118289000Y-102084000D02*
X118289000Y-99815000D01*
X118289000Y-106433000D02*
X118289000Y-104164000D01*
X118329000Y-102084000D02*
X118329000Y-99786000D01*
X118329000Y-106462000D02*
X118329000Y-104164000D01*
X118369000Y-102084000D02*
X118369000Y-99759000D01*
X118369000Y-106489000D02*
X118369000Y-104164000D01*
X118409000Y-102084000D02*
X118409000Y-99732000D01*
X118409000Y-106516000D02*
X118409000Y-104164000D01*
X118449000Y-102084000D02*
X118449000Y-99706000D01*
X118449000Y-106542000D02*
X118449000Y-104164000D01*
X118489000Y-102084000D02*
X118489000Y-99680000D01*
X118489000Y-106568000D02*
X118489000Y-104164000D01*
X118529000Y-102084000D02*
X118529000Y-99655000D01*
X118529000Y-106593000D02*
X118529000Y-104164000D01*
X118569000Y-102084000D02*
X118569000Y-99631000D01*
X118569000Y-106617000D02*
X118569000Y-104164000D01*
X118609000Y-102084000D02*
X118609000Y-99607000D01*
X118609000Y-106641000D02*
X118609000Y-104164000D01*
X118649000Y-102084000D02*
X118649000Y-99584000D01*
X118649000Y-106664000D02*
X118649000Y-104164000D01*
X118689000Y-102084000D02*
X118689000Y-99562000D01*
X118689000Y-106686000D02*
X118689000Y-104164000D01*
X118729000Y-102084000D02*
X118729000Y-99540000D01*
X118729000Y-106708000D02*
X118729000Y-104164000D01*
X118769000Y-102084000D02*
X118769000Y-99518000D01*
X118769000Y-106730000D02*
X118769000Y-104164000D01*
X118809000Y-102084000D02*
X118809000Y-99497000D01*
X118809000Y-106751000D02*
X118809000Y-104164000D01*
X118849000Y-102084000D02*
X118849000Y-99477000D01*
X118849000Y-106771000D02*
X118849000Y-104164000D01*
X118889000Y-102084000D02*
X118889000Y-99458000D01*
X118889000Y-106790000D02*
X118889000Y-104164000D01*
X118929000Y-102084000D02*
X118929000Y-99438000D01*
X118929000Y-106810000D02*
X118929000Y-104164000D01*
X118969000Y-102084000D02*
X118969000Y-99420000D01*
X118969000Y-106828000D02*
X118969000Y-104164000D01*
X119009000Y-102084000D02*
X119009000Y-99402000D01*
X119009000Y-106846000D02*
X119009000Y-104164000D01*
X119049000Y-102084000D02*
X119049000Y-99384000D01*
X119049000Y-106864000D02*
X119049000Y-104164000D01*
X119089000Y-102084000D02*
X119089000Y-99367000D01*
X119089000Y-106881000D02*
X119089000Y-104164000D01*
X119129000Y-102084000D02*
X119129000Y-99350000D01*
X119129000Y-106898000D02*
X119129000Y-104164000D01*
X119169000Y-102084000D02*
X119169000Y-99334000D01*
X119169000Y-106914000D02*
X119169000Y-104164000D01*
X119209000Y-102084000D02*
X119209000Y-99319000D01*
X119209000Y-106929000D02*
X119209000Y-104164000D01*
X119249000Y-106945000D02*
X119249000Y-99303000D01*
X119289000Y-106959000D02*
X119289000Y-99289000D01*
X119329000Y-106974000D02*
X119329000Y-99274000D01*
X119369000Y-106987000D02*
X119369000Y-99261000D01*
X119409000Y-107001000D02*
X119409000Y-99247000D01*
X119449000Y-107013000D02*
X119449000Y-99235000D01*
X119489000Y-107026000D02*
X119489000Y-99222000D01*
X119529000Y-107038000D02*
X119529000Y-99210000D01*
X119569000Y-107049000D02*
X119569000Y-99199000D01*
X119609000Y-107060000D02*
X119609000Y-99188000D01*
X119649000Y-107071000D02*
X119649000Y-99177000D01*
X119689000Y-107081000D02*
X119689000Y-99167000D01*
X119729000Y-107091000D02*
X119729000Y-99157000D01*
X119769000Y-107100000D02*
X119769000Y-99148000D01*
X119809000Y-107109000D02*
X119809000Y-99139000D01*
X119849000Y-107118000D02*
X119849000Y-99130000D01*
X119889000Y-107126000D02*
X119889000Y-99122000D01*
X119929000Y-107134000D02*
X119929000Y-99114000D01*
X119969000Y-107141000D02*
X119969000Y-99107000D01*
X120010000Y-107148000D02*
X120010000Y-99100000D01*
X120050000Y-107154000D02*
X120050000Y-99094000D01*
X120090000Y-107161000D02*
X120090000Y-99087000D01*
X120130000Y-107166000D02*
X120130000Y-99082000D01*
X120170000Y-107172000D02*
X120170000Y-99076000D01*
X120210000Y-107176000D02*
X120210000Y-99072000D01*
X120250000Y-107181000D02*
X120250000Y-99067000D01*
X120290000Y-107185000D02*
X120290000Y-99063000D01*
X120330000Y-107189000D02*
X120330000Y-99059000D01*
X120370000Y-107192000D02*
X120370000Y-99056000D01*
X120410000Y-107195000D02*
X120410000Y-99053000D01*
X120450000Y-107198000D02*
X120450000Y-99050000D01*
X120490000Y-107200000D02*
X120490000Y-99048000D01*
X120530000Y-107201000D02*
X120530000Y-99047000D01*
X120570000Y-107203000D02*
X120570000Y-99045000D01*
X120610000Y-107204000D02*
X120610000Y-99044000D01*
X120650000Y-107204000D02*
X120650000Y-99044000D01*
X120690000Y-107204000D02*
X120690000Y-99044000D01*
X124810000Y-103124000D02*
G75*
G03*
X124810000Y-103124000I-4120000J0D01*
G01*
%TO.C,U1*%
D11*
X172212095Y-87892380D02*
X172212095Y-88701904D01*
X172259714Y-88797142D01*
X172307333Y-88844761D01*
X172402571Y-88892380D01*
X172593047Y-88892380D01*
X172688285Y-88844761D01*
X172735904Y-88797142D01*
X172783523Y-88701904D01*
X172783523Y-87892380D01*
X173783523Y-88892380D02*
X173212095Y-88892380D01*
X173497809Y-88892380D02*
X173497809Y-87892380D01*
X173402571Y-88035238D01*
X173307333Y-88130476D01*
X173212095Y-88178095D01*
%TO.C,R1*%
X148914380Y-102782666D02*
X148438190Y-103116000D01*
X148914380Y-103354095D02*
X147914380Y-103354095D01*
X147914380Y-102973142D01*
X147962000Y-102877904D01*
X148009619Y-102830285D01*
X148104857Y-102782666D01*
X148247714Y-102782666D01*
X148342952Y-102830285D01*
X148390571Y-102877904D01*
X148438190Y-102973142D01*
X148438190Y-103354095D01*
X148914380Y-101830285D02*
X148914380Y-102401714D01*
X148914380Y-102116000D02*
X147914380Y-102116000D01*
X148057238Y-102211238D01*
X148152476Y-102306476D01*
X148200095Y-102401714D01*
%TO.C,J2*%
X180260666Y-104906380D02*
X180260666Y-105620666D01*
X180213047Y-105763523D01*
X180117809Y-105858761D01*
X179974952Y-105906380D01*
X179879714Y-105906380D01*
X180689238Y-105001619D02*
X180736857Y-104954000D01*
X180832095Y-104906380D01*
X181070190Y-104906380D01*
X181165428Y-104954000D01*
X181213047Y-105001619D01*
X181260666Y-105096857D01*
X181260666Y-105192095D01*
X181213047Y-105334952D01*
X180641619Y-105906380D01*
X181260666Y-105906380D01*
%TO.C,J1*%
X107108666Y-97706380D02*
X107108666Y-98420666D01*
X107061047Y-98563523D01*
X106965809Y-98658761D01*
X106822952Y-98706380D01*
X106727714Y-98706380D01*
X108108666Y-98706380D02*
X107537238Y-98706380D01*
X107822952Y-98706380D02*
X107822952Y-97706380D01*
X107727714Y-97849238D01*
X107632476Y-97944476D01*
X107537238Y-97992095D01*
%TO.C,D3*%
X157757904Y-115918380D02*
X157757904Y-114918380D01*
X157996000Y-114918380D01*
X158138857Y-114966000D01*
X158234095Y-115061238D01*
X158281714Y-115156476D01*
X158329333Y-115346952D01*
X158329333Y-115489809D01*
X158281714Y-115680285D01*
X158234095Y-115775523D01*
X158138857Y-115870761D01*
X157996000Y-115918380D01*
X157757904Y-115918380D01*
X158662666Y-114918380D02*
X159281714Y-114918380D01*
X158948380Y-115299333D01*
X159091238Y-115299333D01*
X159186476Y-115346952D01*
X159234095Y-115394571D01*
X159281714Y-115489809D01*
X159281714Y-115727904D01*
X159234095Y-115823142D01*
X159186476Y-115870761D01*
X159091238Y-115918380D01*
X158805523Y-115918380D01*
X158710285Y-115870761D01*
X158662666Y-115823142D01*
%TO.C,D2*%
X120927904Y-116148380D02*
X120927904Y-115148380D01*
X121166000Y-115148380D01*
X121308857Y-115196000D01*
X121404095Y-115291238D01*
X121451714Y-115386476D01*
X121499333Y-115576952D01*
X121499333Y-115719809D01*
X121451714Y-115910285D01*
X121404095Y-116005523D01*
X121308857Y-116100761D01*
X121166000Y-116148380D01*
X120927904Y-116148380D01*
X121880285Y-115243619D02*
X121927904Y-115196000D01*
X122023142Y-115148380D01*
X122261238Y-115148380D01*
X122356476Y-115196000D01*
X122404095Y-115243619D01*
X122451714Y-115338857D01*
X122451714Y-115434095D01*
X122404095Y-115576952D01*
X121832666Y-116148380D01*
X122451714Y-116148380D01*
%TO.C,D1*%
X120165904Y-95574380D02*
X120165904Y-94574380D01*
X120404000Y-94574380D01*
X120546857Y-94622000D01*
X120642095Y-94717238D01*
X120689714Y-94812476D01*
X120737333Y-95002952D01*
X120737333Y-95145809D01*
X120689714Y-95336285D01*
X120642095Y-95431523D01*
X120546857Y-95526761D01*
X120404000Y-95574380D01*
X120165904Y-95574380D01*
X121689714Y-95574380D02*
X121118285Y-95574380D01*
X121404000Y-95574380D02*
X121404000Y-94574380D01*
X121308761Y-94717238D01*
X121213523Y-94812476D01*
X121118285Y-94860095D01*
%TO.C,C2*%
X171259142Y-103524666D02*
X171306761Y-103572285D01*
X171354380Y-103715142D01*
X171354380Y-103810380D01*
X171306761Y-103953238D01*
X171211523Y-104048476D01*
X171116285Y-104096095D01*
X170925809Y-104143714D01*
X170782952Y-104143714D01*
X170592476Y-104096095D01*
X170497238Y-104048476D01*
X170402000Y-103953238D01*
X170354380Y-103810380D01*
X170354380Y-103715142D01*
X170402000Y-103572285D01*
X170449619Y-103524666D01*
X170449619Y-103143714D02*
X170402000Y-103096095D01*
X170354380Y-103000857D01*
X170354380Y-102762761D01*
X170402000Y-102667523D01*
X170449619Y-102619904D01*
X170544857Y-102572285D01*
X170640095Y-102572285D01*
X170782952Y-102619904D01*
X171354380Y-103191333D01*
X171354380Y-102572285D01*
%TO.C,C1*%
X120523333Y-108731142D02*
X120475714Y-108778761D01*
X120332857Y-108826380D01*
X120237619Y-108826380D01*
X120094761Y-108778761D01*
X119999523Y-108683523D01*
X119951904Y-108588285D01*
X119904285Y-108397809D01*
X119904285Y-108254952D01*
X119951904Y-108064476D01*
X119999523Y-107969238D01*
X120094761Y-107874000D01*
X120237619Y-107826380D01*
X120332857Y-107826380D01*
X120475714Y-107874000D01*
X120523333Y-107921619D01*
X121475714Y-108826380D02*
X120904285Y-108826380D01*
X121190000Y-108826380D02*
X121190000Y-107826380D01*
X121094761Y-107969238D01*
X120999523Y-108064476D01*
X120904285Y-108112095D01*
%TD*%
M02*
